<!-- Copyright © 2000–2024 JetBrains s.r.o. -->
<svg width="20" height="20" viewBox="0 0 20 20" xmlns="http://www.w3.org/2000/svg">
  <path fill="#CED0D6" fill-rule="evenodd" d="M13.72 8.83c-1.87 0-3.1-1.57-3.1-3.6v-.02c0-2.03 1.26-3.62 3.12-3.62s3.1 1.57 3.1 3.6v.02c0 2.03-1.25 3.62-3.12 3.62m.03-1.39c.93 0 1.52-.94 1.52-2.21v-.02c0-1.27-.62-2.23-1.54-2.23s-1.52.93-1.52 2.21v.02c0 1.28.61 2.23 1.54 2.23M6.23 18.39c-1.87 0-3.1-1.57-3.1-3.6v-.02c0-2.03 1.26-3.62 3.12-3.62s3.1 1.57 3.1 3.6v.02c0 2.03-1.25 3.62-3.12 3.62M6.25 17c.93 0 1.52-.94 1.52-2.21v-.02c0-1.27-.62-2.23-1.54-2.23s-1.52.93-1.52 2.21v.02c0 1.28.61 2.23 1.54 2.23" clip-rule="evenodd"/>
  <path fill="#CED0D6" d="M8.64 7.61H7.32V1.69H6.27l-2.42.78.32 1.14 1.63-.48v4.48H4.26v1.13h4.37V7.61zm6.19 9.57h1.32v1.13h-4.38v-1.13h1.54V12.7l-1.63.48-.32-1.14 2.42-.78h1.05v5.93z"/>
</svg>
