<!-- Copyright © 2000–2024 JetBrains s.r.o. -->
<svg width="16" height="16" viewBox="0 0 16 16" xmlns="http://www.w3.org/2000/svg">
  <path fill="#6e6e6e" fill-rule="evenodd" d="M10.98 7.06c-1.5 0-2.48-1.26-2.48-2.88v-.02c0-1.62 1.01-2.9 2.5-2.9s2.48 1.26 2.48 2.88v.02c0 1.62-1 2.9-2.5 2.9M11 5.95c.74 0 1.22-.75 1.22-1.77v-.02c0-1.02-.5-1.78-1.23-1.78s-1.22.74-1.22 1.77v.02c0 1.02.49 1.78 1.23 1.78m-6.02 8.76c-1.5 0-2.48-1.26-2.48-2.88v-.02c0-1.62 1.01-2.9 2.5-2.9s2.48 1.26 2.48 2.88v.02c0 1.62-1 2.9-2.5 2.9M5 13.6c.74 0 1.22-.75 1.22-1.77v-.02c0-1.02-.5-1.78-1.23-1.78s-1.22.74-1.22 1.77v.02c0 1.02.49 1.78 1.23 1.78"/>
  <path fill="#6e6e6e" d="M6.91 6.09H5.86V1.35h-.84l-1.94.62.26.91 1.3-.38v3.59H3.41v.9h3.5zm4.95 7.65h1.05v.9h-3.5v-.9h1.23v-3.59l-1.3.38-.26-.91L11.02 9h.84z"/>
</svg>
