<!-- Copyright © 2000–2024 JetBrains s.r.o. -->
<svg width="40" height="40" viewBox="0 0 40 40" xmlns="http://www.w3.org/2000/svg">
  <path fill="url(#a)" d="M13.9 9.86h2v.99h-2zm2-1.79h-2v.99h2zm-4.55-.31v7.22H8.27v3.75h10.25v-3.75h-2.63v-3.33h-2v4.33h2.63v.75H9.27v-.75h3.08V5.26L8.86 6.28l-.24-.86 4.04-1.3h1.23v3.15h2V3.13h-2.85L7.28 4.94l1.04 3.71 3.03-.88zM20 10.93c0-4.67 2.94-8.03 6.99-8.03s6.95 3.34 6.95 7.95-2.94 8.03-6.99 8.03S20 15.54 20 10.93m2-.04c0 3.84 2.24 6.49 5.45 6.49s5.49-2.73 5.49-6.49-2.29-6.49-5.45-6.49S22 7.13 22 10.89m1.17 0c0-3.08 1.56-5.21 3.79-5.21s3.83 2.19 3.83 5.21v.04c0 3.04-1.56 5.17-3.79 5.17s-3.83-2.14-3.83-5.21m1-.04c0 2.22.96 3.75 2.33 3.75s2.29-1.51 2.29-3.67v-.04c0-2.15-.98-3.71-2.33-3.71s-2.29 1.51-2.29 3.67m-7.38 18.16v.04c0 3.04-1.56 5.17-3.79 5.17s-3.83-2.14-3.83-5.21 1.56-5.21 3.79-5.21 3.83 2.19 3.83 5.21m-2-.5c0-2.15-.98-3.71-2.33-3.71s-2.29 1.51-2.29 3.67.96 3.75 2.33 3.75 2.29-1.51 2.29-3.67zm15.12 4.59h2.63v3.75H22.29V33.1h3.08v-7.22l-3.03.88-1.04-3.71 5.76-1.81h2.85v.7h-3.09l-4.04 1.3.25.76 3.85-1.26h3.03zm-1.5 2V23.25h-1.23l-4.04 1.3.24.86 3.49-1.02v10.72h-3.08v.75h7.25v-.75h-2.63zm-8.47-6.13c0 4.67-2.94 8.03-6.99 8.03S6 33.66 6 29.05s2.94-8.03 6.99-8.03 6.95 3.34 6.95 7.95m-1.5-.46c0-3.78-2.29-6.49-5.45-6.49S7.5 24.75 7.5 28.51 9.74 35 12.95 35s5.49-2.73 5.49-6.49"/>
  <defs>
    <linearGradient id="a" x1="5.82" x2="35" y1="6.48" y2="34.27" gradientUnits="userSpaceOnUse">
      <stop stop-color="#283F7A"/>
      <stop offset=".12" stop-color="#88526F"/>
      <stop offset=".25" stop-color="#ED6F5F"/>
      <stop offset=".31" stop-color="#ED8051"/>
      <stop offset=".36" stop-color="#EE874C"/>
      <stop offset=".51" stop-color="#84C6D6"/>
      <stop offset=".67" stop-color="#009EB3"/>
      <stop offset=".83" stop-color="#60B9E6"/>
      <stop offset="1" stop-color="#2A5EA6"/>
    </linearGradient>
  </defs>
</svg>
